<svg width="63" height="55" viewBox="0 0 63 55" fill="none" xmlns="http://www.w3.org/2000/svg">
<path d="M32.4299 53.9799C47.0599 53.9799 58.9198 42.1199 58.9198 27.4899C58.9198 12.86 47.0599 1 32.4299 1C17.7999 1 5.93994 12.86 5.93994 27.4899C5.93994 42.1199 17.7999 53.9799 32.4299 53.9799Z" stroke="#C7BCA1" stroke-width="0.514368"/>
<path d="M50.8951 27.4899C50.8951 34.8296 48.8121 41.4635 45.4576 46.2555C42.1027 51.0484 37.4925 53.9799 32.4293 53.9799C27.3658 53.9799 22.7556 51.0484 19.4007 46.2555C16.0463 41.4635 13.9634 34.8296 13.9634 27.4899C13.9634 20.1502 16.0463 13.5164 19.4007 8.72434C22.7556 3.93151 27.3658 1 32.4293 1C37.4925 1 42.1027 3.93151 45.4576 8.72434C48.8121 13.5164 50.8951 20.1502 50.8951 27.4899Z" stroke="#C7BCA1" stroke-width="0.514368"/>
<path d="M42.8726 27.4899C42.8726 34.8516 41.6784 41.5046 39.7574 46.3076C38.7963 48.7097 37.6588 50.6365 36.4084 51.9584C35.1587 53.2799 33.8146 53.9799 32.4309 53.9799C31.0471 53.9799 29.7029 53.2799 28.4532 51.9584C27.2031 50.6365 26.0653 48.7097 25.1045 46.3076C23.1832 41.5046 21.9893 34.8516 21.9893 27.4899C21.9893 20.1283 23.1832 13.4754 25.1045 8.67239C26.0653 6.27017 27.2031 4.34343 28.4532 3.02144C29.7029 1.70001 31.0471 1 32.4309 1C33.8146 1 35.1587 1.70001 36.4084 3.02144C37.6588 4.34343 38.7963 6.27017 39.7574 8.67239C41.6784 13.4754 42.8726 20.1283 42.8726 27.4899Z" stroke="#C7BCA1" stroke-width="0.514368"/>
<path d="M34.8463 27.4899C34.8463 34.8703 34.5469 41.548 34.064 46.3773C33.8225 48.7936 33.5357 50.7389 33.2194 52.0759C33.061 52.7466 32.8983 53.2501 32.7366 53.5807C32.6555 53.7466 32.5814 53.855 32.5189 53.9186C32.4884 53.9494 32.4652 53.9653 32.4499 53.9729C32.4362 53.9799 32.4298 53.9799 32.4288 53.9799C32.4275 53.9799 32.4214 53.9799 32.4074 53.9729C32.3921 53.9653 32.3689 53.9494 32.3384 53.9186C32.2759 53.855 32.2018 53.7466 32.1208 53.5807C31.9592 53.2501 31.7963 52.7466 31.6379 52.0759C31.3218 50.7389 31.0348 48.7936 30.7933 46.3773C30.3104 41.548 30.0112 34.8703 30.0112 27.4899C30.0112 20.1097 30.3104 13.4318 30.7933 8.60246C31.0348 6.18621 31.3218 4.24089 31.6379 2.9039C31.7963 2.23334 31.9592 1.72973 32.1208 1.39914C32.2018 1.23323 32.2759 1.12485 32.3384 1.06136C32.3689 1.03047 32.3921 1.01469 32.4074 1.00701C32.4211 0.999998 32.4275 1 32.4286 1H32.4288C32.4298 1 32.4362 0.999998 32.4499 1.00701C32.4652 1.01469 32.4884 1.03047 32.5189 1.06136C32.5814 1.12485 32.6555 1.23323 32.7366 1.39914C32.8983 1.72973 33.061 2.23334 33.2194 2.9039C33.5357 4.24089 33.8225 6.18621 34.064 8.60246C34.5469 13.4318 34.8463 20.1097 34.8463 27.4899Z" stroke="#C7BCA1" stroke-width="0.514368"/>
<path d="M53.5028 11.3398C57.6768 11.9899 60.6933 13.4066 61.6757 15.9785C64.2233 22.6478 52.772 33.2176 36.0987 39.5867C19.4251 45.9556 3.84339 45.7122 1.29577 39.043C0.13569 36.0059 2.15875 32.1006 5.97534 28.2112" stroke="#8E7E57" stroke-width="0.514368"/>
<path d="M58.9199 27.4899C58.9199 42.12 47.0598 53.9799 32.43 53.9799C17.7999 53.9799 5.93994 42.12 5.93994 27.4899C5.93994 12.8599 17.7999 1 32.43 1C40.8109 1 48.2828 4.89191 53.1372 10.968C53.4285 11.3325 53.7102 11.7048 53.9822 12.0846C57.0904 16.4253 58.9199 21.7436 58.9199 27.4899Z" stroke="#C7BCA1" stroke-width="0.514368"/>
<path d="M59.3666 24.3594C55.264 29.7432 46.7461 35.5234 36.0987 39.5904C19.4251 45.9595 3.84339 45.7161 1.29577 39.0468C0.353961 36.5812 1.51016 33.5433 4.02079 30.4063" stroke="#8E7E57" stroke-width="0.514368"/>
</svg>
