<svg width="65" height="61" viewBox="0 0 65 61" fill="none" xmlns="http://www.w3.org/2000/svg">
<path d="M51.6089 35.2936C51.6089 37.7578 54.3122 39.7439 57.6591 39.7439C61.0061 39.7439 63.7094 37.7578 63.7094 35.2936C63.7094 33.381 62.3118 32.2041 60.8958 31.5972C59.0935 30.8432 57.1258 30.8064 55.2685 30.3283C54.2938 30.0709 53.3191 29.6479 52.5835 28.8387C51.2595 27.3859 51.3882 25.3079 52.6755 23.9286C53.9628 22.5494 55.9121 21.9609 57.6591 21.9609C61.0061 21.9609 63.7094 23.947 63.7094 26.4113" stroke="#8E7E57" stroke-linecap="round" stroke-linejoin="round"/>
<path d="M57.6589 41.638V20.0299" stroke="#8E7E57" stroke-linecap="round" stroke-linejoin="round"/>
<path d="M52.6628 11.7756C52.9384 11.7927 53.1757 11.5832 53.1929 11.3076L53.4722 6.81625C53.4894 6.54064 53.2799 6.30332 53.0042 6.28618C52.7286 6.26903 52.4913 6.47856 52.4742 6.75417L52.2258 10.7465L48.2336 10.4981C47.958 10.481 47.7206 10.6905 47.7035 10.9661C47.6863 11.2417 47.8959 11.4791 48.1715 11.4962L52.6628 11.7756ZM54.377 49.1708C54.5457 48.9522 54.5052 48.6382 54.2866 48.4695C54.068 48.3008 53.754 48.3413 53.5853 48.5599L54.377 49.1708ZM53.0687 10.9456C47.5716 4.71932 39.5296 0.772461 30.5525 0.772461V1.77246C39.2296 1.77246 47.0029 5.58612 52.319 11.6075L53.0687 10.9456ZM30.5525 0.772461C13.9643 0.772461 0.5 14.2372 0.5 30.8433H1.5C1.5 14.7891 14.517 1.77246 30.5525 1.77246V0.772461ZM0.5 30.8433C0.5 47.4496 13.9645 60.9142 30.5709 60.9142V59.9142C14.5168 59.9142 1.5 46.8974 1.5 30.8433H0.5ZM30.5709 60.9142C40.2781 60.9142 48.8806 56.2936 54.377 49.1708L53.5853 48.5599C48.2684 55.4502 39.9523 59.9142 30.5709 59.9142V60.9142Z" fill="#C7BCA1"/>
</svg>
