<svg width="42" height="62" viewBox="0 0 42 62" fill="none" xmlns="http://www.w3.org/2000/svg">
<path d="M33.5244 61.1399L21.069 47.509L8.61353 61.1399V22.9767H33.5244V61.1399Z" stroke="#C7BCA1" stroke-linecap="round" stroke-linejoin="round"/>
<path d="M41.1847 19.7225C41.1847 21.6354 37.298 22.9327 36.7298 24.6477C36.1616 26.3628 38.4572 29.6829 37.3435 31.1561C36.2298 32.6292 32.2977 31.5079 30.7521 32.6073C29.2066 33.7066 29.1384 37.6644 27.2973 38.2361C25.4563 38.8078 23.047 35.6416 21.0923 35.6416C19.1377 35.6416 16.6602 38.7858 14.8874 38.2361C13.1145 37.6864 12.9781 33.6847 11.4326 32.6073C9.887 31.5299 5.9549 32.6732 4.84118 31.1561C3.72747 29.6389 6.04581 26.4287 5.45486 24.6477C4.86391 22.8667 1 21.6354 1 19.7225C1 17.8096 4.88664 16.5123 5.45486 14.7973C6.02308 13.0823 3.72747 9.76212 4.84118 8.28895C5.9549 6.81578 9.887 7.93715 11.4326 6.83777C12.9781 5.73839 13.0463 1.78062 14.8874 1.20894C16.7284 0.637259 19.1377 3.80348 21.0923 3.80348C23.047 3.80348 25.5245 0.659247 27.2973 1.20894C29.0702 1.75863 29.2066 5.76038 30.7521 6.83777C32.2977 7.91516 36.2298 6.77181 37.3435 8.28895C38.4572 9.8061 36.1389 13.0163 36.7298 14.7973C37.3208 16.5783 41.1847 17.8096 41.1847 19.7225Z" fill="#FFF8F1"/>
<path d="M41.1847 19.7225C41.1847 21.6354 37.298 22.9327 36.7298 24.6477C36.1616 26.3628 38.4572 29.6829 37.3435 31.1561C36.2298 32.6292 32.2977 31.5079 30.7521 32.6073C29.2066 33.7066 29.1384 37.6644 27.2973 38.2361C25.4563 38.8078 23.047 35.6416 21.0923 35.6416C19.1377 35.6416 16.6602 38.7858 14.8874 38.2361C13.1145 37.6864 12.9781 33.6847 11.4326 32.6073C9.887 31.5299 5.9549 32.6732 4.84118 31.1561C3.72747 29.6389 6.04581 26.4287 5.45486 24.6477C4.86391 22.8667 1 21.6354 1 19.7225C1 17.8096 4.88664 16.5123 5.45486 14.7973C6.02308 13.0823 3.72747 9.76212 4.84118 8.28895C5.9549 6.81578 9.887 7.93715 11.4326 6.83777C12.9781 5.73839 13.0463 1.78062 14.8874 1.20894C16.7284 0.637259 19.1377 3.80348 21.0923 3.80348C23.047 3.80348 25.5245 0.659247 27.2973 1.20894C29.0702 1.75863 29.2066 5.76038 30.7521 6.83777C32.2977 7.91516 36.2298 6.77181 37.3435 8.28895C38.4572 9.8061 36.1389 13.0163 36.7298 14.7973C37.3208 16.5783 41.1847 17.8096 41.1847 19.7225Z" fill="#FFF8F1" stroke="#8E7E57" stroke-linecap="round" stroke-linejoin="round"/>
</svg>
