<svg width="78" height="46" viewBox="0 0 78 46" fill="none" xmlns="http://www.w3.org/2000/svg">
<path d="M1 45.5L26.4612 19.8994L42.7414 36.2784L61.6105 17.3259" stroke="#C7BCA1" stroke-linecap="round" stroke-linejoin="round"/>
<path d="M66.2813 23.0623C72.2805 23.0623 77.1437 18.1775 77.1437 12.1519C77.1437 6.12621 72.2805 1.24146 66.2813 1.24146C60.2822 1.24146 55.4189 6.12621 55.4189 12.1519C55.4189 18.1775 60.2822 23.0623 66.2813 23.0623Z" fill="#FFF8F1" stroke="#8E7E57" stroke-linecap="round" stroke-linejoin="round"/>
<path d="M66.2814 15.9051C68.345 15.9051 70.0178 14.2248 70.0178 12.1521C70.0178 10.0794 68.345 8.39917 66.2814 8.39917C64.2178 8.39917 62.5449 10.0794 62.5449 12.1521C62.5449 14.2248 64.2178 15.9051 66.2814 15.9051Z" fill="#FFF8F1" stroke="#8E7E57" stroke-linecap="round" stroke-linejoin="round"/>
</svg>
