<svg width="62" height="62" viewBox="0 0 62 62" fill="none" xmlns="http://www.w3.org/2000/svg">
<path d="M31.0187 1.45996H30.9813C14.4231 1.45996 1 14.8831 1 31.4413V31.4786C1 48.0369 14.4231 61.46 30.9813 61.46H31.0187C47.5769 61.46 61 48.0369 61 31.4786V31.4413C61 14.8831 47.5769 1.45996 31.0187 1.45996Z" stroke="#C7BCA1" stroke-linecap="round" stroke-linejoin="round"/>
<path d="M31.0114 14.7686H30.9902C21.5933 14.7686 13.9756 22.2369 13.9756 31.4495V31.4703C13.9756 40.6829 21.5933 48.1513 30.9902 48.1513H31.0114C40.4082 48.1513 48.0259 40.6829 48.0259 31.4703V31.4495C48.0259 22.2369 40.4082 14.7686 31.0114 14.7686Z" stroke="#8E7E57" stroke-linecap="round" stroke-linejoin="round"/>
<path d="M31 24.7483L31 35.1276" stroke="#8E7E57" stroke-linecap="round" stroke-linejoin="round"/>
<path d="M31 37.4048L31 38.1714" stroke="#8E7E57" stroke-linecap="round" stroke-linejoin="round"/>
</svg>
