<svg width="60" height="62" viewBox="0 0 60 62" fill="none" xmlns="http://www.w3.org/2000/svg">
<path d="M1.52268 22.0461C1.44045 22.3097 1.5875 22.59 1.85111 22.6723C2.11473 22.7545 2.39509 22.6075 2.47732 22.3438L1.52268 22.0461ZM57.5031 20.4645C57.7568 20.5736 58.0509 20.4564 58.16 20.2027L59.9374 16.0686C60.0465 15.8149 59.9293 15.5208 59.6756 15.4118C59.4219 15.3027 59.1278 15.4199 59.0187 15.6736L57.4388 19.3484L53.764 17.7684C53.5103 17.6593 53.2163 17.7766 53.1072 18.0302C52.9981 18.2839 53.1154 18.578 53.369 18.6871L57.5031 20.4645ZM2.47732 22.3438C6.16797 10.512 17.2039 1.91992 30.2459 1.91992V0.919922C16.7534 0.919922 5.33974 9.80902 1.52268 22.0461L2.47732 22.3438ZM30.2459 1.91992C42.4926 1.91992 52.9669 9.48095 57.2362 20.1904L58.1651 19.82C53.749 8.74235 42.9146 0.919922 30.2459 0.919922V1.91992Z" fill="#8E7E57"/>
<path d="M2.33005 39.5538C2.45865 39.3094 2.761 39.2156 3.00537 39.3442L6.9876 41.4398C7.23197 41.5684 7.32582 41.8708 7.19722 42.1151C7.06862 42.3595 6.76627 42.4534 6.5219 42.3248L2.98214 40.4619L1.11932 44.0017C0.990719 44.2461 0.688366 44.3399 0.443996 44.2113C0.199627 44.0827 0.105778 43.7804 0.234379 43.536L2.33005 39.5538ZM58.0087 41.7912C58.1109 41.5347 58.4018 41.4097 58.6583 41.5119C58.9148 41.6142 59.0399 41.905 58.9376 42.1615L58.0087 41.7912ZM3.25004 39.6384C6.92228 51.4691 17.9759 60.0616 31.0185 60.0616V61.0616C17.5264 61.0616 6.09367 52.173 2.29499 39.9348L3.25004 39.6384ZM31.0185 60.0616C43.2651 60.0616 53.7394 52.5006 58.0087 41.7912L58.9376 42.1615C54.5215 53.2392 43.6871 61.0616 31.0185 61.0616V60.0616Z" fill="#C7BCA1"/>
</svg>
