<svg width="51" height="56" viewBox="0 0 51 56" fill="none" xmlns="http://www.w3.org/2000/svg">
<path d="M50.4569 1.40039H1V55.5H50.4569V1.40039Z" stroke="#C7BCA1" stroke-linecap="round" stroke-linejoin="round"/>
<path d="M10.3072 21.8866V9.02832L7.92798 11.4075" stroke="#8E7E57" stroke-linecap="round" stroke-linejoin="round"/>
<path d="M32.4373 12.4221V18.5101" stroke="#8E7E57" stroke-linecap="round" stroke-linejoin="round"/>
<path d="M21.3635 12.2998C21.3635 10.5027 19.9067 9.0459 18.1096 9.0459C16.3125 9.0459 14.8557 10.5027 14.8557 12.2998V18.6503C14.8557 20.4474 16.3125 21.9042 18.1096 21.9042C19.9067 21.9042 21.3635 20.4474 21.3635 18.6503V12.2998Z" stroke="#8E7E57" stroke-linecap="round" stroke-linejoin="round"/>
<path d="M29.0783 15.7987C30.943 15.7987 32.4546 14.287 32.4546 12.4223C32.4546 10.5576 30.943 9.0459 29.0783 9.0459C27.2136 9.0459 25.7019 10.5576 25.7019 12.4223C25.7019 14.287 27.2136 15.7987 29.0783 15.7987Z" stroke="#8E7E57" stroke-linecap="round" stroke-linejoin="round"/>
<path d="M32.4377 18.5098C32.4377 20.3817 30.9332 21.8862 29.0613 21.8862C27.7668 21.8862 26.6471 21.1514 26.0698 20.0843" stroke="#8E7E57" stroke-linecap="round" stroke-linejoin="round"/>
<path d="M43.5288 12.4219V18.5099" stroke="#8E7E57" stroke-linecap="round" stroke-linejoin="round"/>
<path d="M40.152 15.7987C42.0167 15.7987 43.5284 14.287 43.5284 12.4223C43.5284 10.5576 42.0167 9.0459 40.152 9.0459C38.2873 9.0459 36.7756 10.5576 36.7756 12.4223C36.7756 14.287 38.2873 15.7987 40.152 15.7987Z" stroke="#8E7E57" stroke-linecap="round" stroke-linejoin="round"/>
<path d="M43.5285 18.5098C43.5285 20.3817 42.024 21.8862 40.1521 21.8862C38.8576 21.8862 37.738 21.1514 37.1606 20.0843" stroke="#8E7E57" stroke-linecap="round" stroke-linejoin="round"/>
</svg>
