<svg width="65" height="61" viewBox="0 0 65 61" fill="none" xmlns="http://www.w3.org/2000/svg">
<path d="M49.0162 25.0234V59.5723H48.6401H1V25.0234L24.9987 1.34766L49.0162 25.0234Z" stroke="#C7BCA1" stroke-linecap="round" stroke-linejoin="round"/>
<path d="M48.585 43.2256C57.0904 43.2256 63.9854 36.3306 63.9854 27.8252C63.9854 19.3198 57.0904 12.4248 48.585 12.4248C40.0796 12.4248 33.1846 19.3198 33.1846 27.8252C33.1846 36.3306 40.0796 43.2256 48.585 43.2256Z" fill="#FFF8F1" stroke="#8E7E57" stroke-linecap="round" stroke-linejoin="round"/>
<path d="M44.2256 31.0352C44.2256 32.7979 46.1738 34.2451 48.5859 34.2451C50.9981 34.2451 52.9463 32.8164 52.9463 31.0352C52.9463 29.6621 51.9443 28.8086 50.9238 28.3633C49.6436 27.8067 48.2148 27.8067 46.8789 27.4541C46.1738 27.2686 45.4688 26.9717 44.9492 26.3779C44.0029 25.3389 44.0957 23.8359 45.0234 22.834C45.9512 21.832 47.3428 21.4053 48.6045 21.4053C51.0166 21.4053 52.9649 22.834 52.9649 24.6152" stroke="#8E7E57" stroke-linecap="round" stroke-linejoin="round"/>
<path d="M48.5854 35.5996V20.0508" stroke="#8E7E57" stroke-linecap="round" stroke-linejoin="round"/>
</svg>
