<svg width="164" height="164" viewBox="0 0 164 164" fill="none" xmlns="http://www.w3.org/2000/svg">
<g clip-path="url(#clip0_476_1056)">
<path d="M81.991 50.5236C54.8231 50.5236 29.5182 59.8556 14.3904 75.1213C10.7508 69.429 8.73263 63.1847 8.73263 56.6299C8.73263 30.1693 41.5928 8.62472 81.991 8.62472C122.389 8.62472 155.249 30.152 155.249 56.6299H163.874C163.891 25.4084 127.15 0 81.991 0C36.832 0 0.10791 25.4084 0.10791 56.6299C0.10791 87.8514 36.8492 113.26 81.991 113.26C109.159 113.26 134.464 103.928 149.592 88.6621C153.231 94.3545 155.249 100.599 155.249 107.154C155.249 133.614 122.389 155.159 81.991 155.159C41.5928 155.159 8.73263 133.614 8.73263 107.154H0.10791C0.10791 138.375 36.8492 163.783 81.991 163.783C127.133 163.783 163.874 138.375 163.874 107.154C163.874 75.932 127.133 50.5236 81.991 50.5236ZM81.991 104.635C55.7546 104.635 32.7094 95.5447 19.7723 81.9349C33.1751 67.8076 56.5998 59.1483 81.991 59.1483C107.382 59.1483 131.273 68.2388 144.21 81.8486C130.807 95.9759 107.382 104.635 81.991 104.635Z" fill="white"/>
</g>
<defs>
<clipPath id="clip0_476_1056">
<rect width="163.783" height="163.783" fill="white" transform="translate(0.108398)"/>
</clipPath>
</defs>
</svg>
